<?xml version="1.0" encoding="UTF-8"?>
<svg width="143px" height="129px" viewBox="0 0 143 129" version="1.1" xmlns="http://www.w3.org/2000/svg" xmlns:xlink="http://www.w3.org/1999/xlink">
    <!-- Generator: Sketch 45.1 (43504) - http://www.bohemiancoding.com/sketch -->
    <title>identify orange</title>
    <desc>Created with Sketch.</desc>
    <defs></defs>
    <g id="Symbols" stroke="none" stroke-width="1" fill="none" fill-rule="evenodd">
        <g id="identify-orange" stroke="#FF9F29" stroke-width="10">
            <g id="Group-3" transform="translate(14.000000, 15.000000)">
                <path d="M49.5,54 C55.2647368,54 58.4737177,48.8660592 62.198361,43.8211878 C65.7888488,38.9580243 70,34.3191081 70,27 C70,12.0883118 60.8218374,0 49.5,0 C38.1781626,0 29,12.0883118 29,27 C29,34.3156471 33.2090605,38.9517455 36.7965465,43.8142877 C40.5215335,48.8632014 43.7326355,54 49.5,54 Z" id="Oval-2"></path>
                <path d="M0,104.789063 C34.4765625,57.0703125 66.9088542,57.0703125 97.296875,104.789063 C97.296875,104.789063 64.8645833,104.789063 0,104.789063 Z" id="Path-6" stroke-linecap="round" stroke-linejoin="round"></path>
                <polyline id="Path-7" stroke-linecap="round" points="88 53.265625 98.9882812 67.3007812 118.644531 38"></polyline>
            </g>
        </g>
    </g>
</svg>